<?xml version="1.0" encoding="iso-8859-1"?>
<!-- Generator: Adobe Illustrator 19.0.0, SVG Export Plug-In . SVG Version: 6.00 Build 0)  -->
<svg version="1.1" id="Layer_1" xmlns="http://www.w3.org/2000/svg" xmlns:xlink="http://www.w3.org/1999/xlink" x="0px" y="0px"
	 viewBox="0 0 472.207 472.207" style="enable-background:new 0 0 472.207 472.207;" xml:space="preserve">
<g>
	<path style="fill:#EAB87D;" d="M296.974,108.44c0,30.51-22.46,48.31-51.75,51.33c-2.97,0.32-6.02,0.47-9.12,0.47
		c-3.1,0-6.15-0.16-9.13-0.47c-1.49-0.15-2.97-0.34-4.42-0.57c-6.67-1.06-12.92-2.91-18.55-5.54c-0.01,0-0.01-0.01-0.02-0.01
		c-17.27-8.06-28.76-23.38-28.76-45.21c0-4.83,0.56-9.77,1.62-14.7c0.27-1.24,0.57-2.48,0.89-3.71
		c3.35-12.55,9.85-24.77,18.47-34.46c10.69-12,24.65-20.11,39.9-20.11c28.8,0,52.93,28.88,59.25,58.3
		C296.414,98.68,296.974,103.62,296.974,108.44z"/>
	<path style="fill:#FFFFFF;" d="M248.055,115.335c0,9.697-5.352,17.558-11.954,17.558s-11.954-7.861-11.954-17.558
		C224.147,115.335,248.055,115.335,248.055,115.335z"/>
	<g>
		<path d="M215.751,100.018c0,0-0.303-0.04-0.778-0.17c-0.234-0.078-0.532-0.14-0.829-0.189c-0.299-0.06-0.603-0.132-0.969-0.186
			c-0.345-0.076-0.715-0.135-1.097-0.184c-0.368-0.082-0.776-0.08-1.158-0.154c-0.403-0.009-0.794-0.077-1.2-0.08
			c-0.401-0.034-0.808-0.022-1.213-0.038c-0.405,0.017-0.811,0.008-1.212,0.041c-0.406,0.007-0.797,0.069-1.199,0.082
			c-0.382,0.074-0.79,0.073-1.157,0.155c-0.382,0.048-0.752,0.107-1.097,0.183c-0.361,0.049-0.683,0.133-0.987,0.199
			c-0.309,0.06-0.594,0.111-0.817,0.178c-0.461,0.116-0.775,0.164-0.775,0.164s0.059-0.289,0.251-0.763
			c0.092-0.242,0.22-0.528,0.416-0.818c0.187-0.301,0.415-0.637,0.719-0.948c0.148-0.161,0.311-0.322,0.481-0.492
			c0.18-0.151,0.376-0.296,0.578-0.452c0.401-0.321,0.882-0.551,1.382-0.808c0.517-0.196,1.06-0.427,1.642-0.519
			c0.574-0.15,1.177-0.162,1.776-0.201c0.599,0.039,1.201,0.054,1.776,0.204c0.581,0.096,1.125,0.322,1.641,0.521
			c0.499,0.257,0.981,0.488,1.381,0.808c0.202,0.156,0.398,0.299,0.578,0.452c0.17,0.17,0.334,0.329,0.481,0.491
			c0.299,0.306,0.545,0.654,0.737,0.96c0.208,0.3,0.323,0.576,0.404,0.807C215.681,99.721,215.751,100.018,215.751,100.018z"/>
		<path d="M270.942,100.018c0,0-0.303-0.04-0.778-0.17c-0.234-0.078-0.532-0.14-0.829-0.189c-0.299-0.06-0.603-0.132-0.969-0.186
			c-0.345-0.076-0.715-0.135-1.097-0.184c-0.368-0.082-0.776-0.08-1.158-0.154c-0.403-0.009-0.794-0.077-1.2-0.08
			c-0.401-0.034-0.808-0.022-1.213-0.038c-0.405,0.017-0.811,0.008-1.212,0.041c-0.406,0.007-0.797,0.069-1.199,0.082
			c-0.382,0.074-0.79,0.073-1.157,0.155c-0.382,0.048-0.752,0.107-1.097,0.183c-0.361,0.049-0.683,0.133-0.987,0.199
			c-0.309,0.06-0.594,0.111-0.817,0.178c-0.461,0.116-0.775,0.164-0.775,0.164s0.059-0.289,0.251-0.763
			c0.092-0.242,0.22-0.528,0.416-0.818c0.187-0.301,0.415-0.637,0.719-0.948c0.148-0.161,0.311-0.322,0.481-0.492
			c0.18-0.151,0.376-0.296,0.578-0.452c0.401-0.321,0.882-0.551,1.382-0.808c0.517-0.196,1.06-0.427,1.642-0.519
			c0.574-0.15,1.177-0.162,1.776-0.201c0.599,0.039,1.201,0.054,1.776,0.204c0.581,0.096,1.125,0.322,1.641,0.521
			c0.499,0.257,0.981,0.488,1.381,0.808c0.202,0.156,0.398,0.299,0.578,0.452c0.17,0.17,0.334,0.329,0.481,0.491
			c0.299,0.306,0.545,0.654,0.737,0.96c0.208,0.3,0.323,0.576,0.404,0.807C270.871,99.721,270.942,100.018,270.942,100.018z"/>
	</g>
	<g>
		<path style="fill:#EAB87D;" d="M234.736,203.33h2.867c15.083,0,25.76-15.036,20.461-29.158c-0.5-1.332-0.969-2.181-1.379-2.327
			c-5.349-1.909-10.028-5.268-11.198-10.826l-0.263-1.248c-2.97,0.32-6.02,0.47-9.12,0.47c-3.1,0-6.15-0.16-9.13-0.47l-0.13,0.64
			c-1.19,5.7-5.66,10.15-11.37,11.32c-0.275,0.057-0.734,1.084-1.304,2.737C209.293,188.597,219.788,203.33,234.736,203.33z"/>
		<path style="fill:#EAB87D;" d="M181.974,185.169c-28.872,18.063-48.09,50.127-48.09,86.691c0,1.67,0.04,3.32,0.12,4.97
			c0.3,6.32,1.18,12.49,2.58,18.45c0.66,2.81,4.78,2.27,4.77-0.61v-0.22c0-6.17,0.59-12.05,1.72-17.62
			c4.751-23.503,19.059-41.532,38.9-52.791V185.169z"/>
		<path style="fill:#EAB87D;" d="M228.964,374.33c-0.59,7.02-1.27,14.26-2,21.5c-2.01,20.12-4.4,40.22-6.32,55.5
			c-0.36,2.85-0.7,5.52-1.02,8c-0.56,4.34-1.06,8.07-1.45,11.03c-0.28,2.17-3.27,2.54-4.07,0.51c-1.46-3.68-2.83-7.53-4.11-11.54
			c-0.83-2.6-1.63-5.27-2.39-8c-4.68-16.76-8.04-35.73-10.41-55.5c-0.85-7.09-1.58-14.27-2.19-21.5H228.964z"/>
		<path style="fill:#EAB87D;" d="M277.604,374.33c-2.31,27.39-6.24,54.23-12.6,77c-0.76,2.73-1.56,5.4-2.39,8
			c-1.28,4.01-2.64,7.86-4.1,11.54c-0.8,2.03-3.79,1.66-4.08-0.51c-0.39-2.96-0.89-6.69-1.45-11.03c-0.32-2.48-0.66-5.15-1.02-8
			c-2.6-20.78-6.09-50.46-8.31-77H277.604z"/>
		<path style="fill:#EAB87D;" d="M288.974,185.017v38.321c25.254,13.804,41.87,38.372,41.87,71.112v0.22c0,2.89,4.13,3.36,4.79,0.55
			c1.87-8,2.8-16.37,2.67-24.97C337.76,234.892,317.828,203.013,288.974,185.017z"/>
	</g>
	<path style="opacity:0.29;fill:#4D4D4D;enable-background:new    ;" d="M249.174,167.67c-4.07,1.53-8.47,2.36-13.07,2.36
		c-4.62,0-9.05-0.84-13.14-2.38c1.93-1.95,3.3-4.45,3.88-7.24l0.13-0.64c2.98,0.31,6.03,0.47,9.13,0.47s6.15-0.15,9.12-0.47
		l0.16,0.76C245.954,163.28,247.294,165.73,249.174,167.67z"/>
	<path style="opacity:0.29;fill:#4D4D4D;enable-background:new    ;" d="M295.662,95.269c-23.56-0.92-45.058-13.589-57.248-32.079
		v-0.01c-0.81-1.24-1.58-2.5-2.32-3.78c-11.76,20.56-34.402,34.781-59.542,35.771c0,0,0.662-3.081,0.862-3.901
		c25.14-0.99,46.92-15.08,58.68-35.64c0.74,1.28,1.51,2.54,2.32,3.78v0.01c12.19,18.49,32.8,30.93,56.36,31.85h0.01
		C294.984,92.1,295.662,95.269,295.662,95.269z"/>
	<g>
		<path style="fill:#4D4D4D;" d="M227.316,112.291c5.234,0.511,6.58-7.046,1.507-8.43c-5.322-1.452-11.66-0.975-16.061,6.479
			c-8.984,15.215-6.147,29.838-6.147,29.838s9.541-29.068,20.378-27.919C227.102,112.27,227.209,112.281,227.316,112.291z"/>
		<path style="fill:#4D4D4D;" d="M244.882,112.291c-5.234,0.511-6.58-7.046-1.507-8.43c5.321-1.452,11.66-0.975,16.061,6.479
			c8.984,15.215,6.147,29.838,6.147,29.838s-9.541-29.068-20.378-27.919C245.096,112.27,244.988,112.281,244.882,112.291z"/>
	</g>
	<path style="fill:#428493;" d="M226.964,395.83c-0.35,3.51-0.72,7.02-1.09,10.5c-1.74,16.49-3.64,32.39-5.23,45h-13.04
		c-3.84-13.77-6.8-29.03-9.04-45c-0.49-3.47-0.95-6.97-1.37-10.5H226.964z"/>
	<path style="fill:#428493;" d="M275.414,395.83c-0.42,3.53-0.87,7.03-1.37,10.5c-2.23,15.97-5.2,31.23-9.04,45h-13.04
		c-1.58-12.61-3.49-28.51-5.23-45c-0.37-3.48-0.74-6.99-1.09-10.5H275.414z"/>
	<path style="fill:#428493;" d="M209.994,459.33h9.63c-0.56,4.34-1.06,8.07-1.45,11.03c-0.28,2.17-3.27,2.54-4.07,0.51
		C212.644,467.19,211.274,463.34,209.994,459.33z"/>
	<path style="fill:#428493;" d="M262.614,459.33c-1.28,4.01-2.64,7.86-4.1,11.54c-0.8,2.03-3.79,1.66-4.08-0.51
		c-0.39-2.96-0.89-6.69-1.45-11.03H262.614z"/>
	<path style="opacity:0.29;fill:#4D4D4D;enable-background:new    ;" d="M197.099,394.956h29.953
		c-0.35,3.51-0.808,7.894-1.178,11.374h-27.31C198.074,402.86,197.519,398.486,197.099,394.956z"/>
	<path style="opacity:0.29;fill:#4D4D4D;enable-background:new    ;" d="M275.414,395.248c-0.42,3.53-0.87,7.612-1.37,11.082h-27.31
		c-0.37-3.48-0.74-7.572-1.09-11.082H275.414z"/>
	<path style="fill:#4D4D4D;" d="M175.734,115.33h-0.101c-0.27-2.22-0.41-4.52-0.41-6.89c0-4.83,0.56-9.77,1.62-14.7
		c0.27-1.24,0.57-2.48,0.89-3.71c4.57-0.71,7.78,0.45,7.78,0.45s-2.597,7.743-3,18.252
		C182.373,112.403,179.408,115.33,175.734,115.33z"/>
	<path style="fill:#4D4D4D;" d="M296.974,108.44c0,2.37-0.14,4.67-0.41,6.89h-0.101c-3.674,0-6.639-2.927-6.779-6.598
		c-0.403-10.509-3-18.252-3-18.252s3.21-1.16,7.78-0.45c0.32,1.23,0.62,2.47,0.89,3.71C296.414,98.67,296.974,103.61,296.974,108.44
		z"/>
	<path style="fill:#53A1BC;" d="M300.594,64.5c0,1.12-0.03,2.24-0.09,3.35c-0.09,1.87-0.27,3.73-0.53,5.56
		c-0.35,2.57-0.86,5.1-1.51,7.56c-0.25,0.97-0.53,1.94-0.84,2.89c-0.79,2.54-1.74,5.01-2.84,7.41
		c-23.56-0.92-44.18-13.36-56.37-31.85v-0.01c-0.81-1.24-1.58-2.5-2.32-3.78c5.94-10.35,9.32-22.34,9.32-35.13
		c0-7.02-1.02-13.79-2.93-20.19c1.98,0.19,3.93,0.48,5.86,0.85c22.9,4.4,41.49,20.91,48.85,42.61c0.01,0,0,0.01,0,0.01
		c0.83,2.44,1.52,4.95,2.05,7.52v0.01C300.124,55.57,300.594,59.97,300.594,64.5z"/>
	<path style="fill:#53A1BC;" d="M245.414,20.5c0,12.79-3.38,24.78-9.32,35.13c-11.76,20.56-33.54,34.65-58.68,35.64
		c-0.95-2.09-1.8-4.23-2.53-6.43c-0.32-0.95-0.61-1.91-0.88-2.88c-1.11-3.92-1.85-7.99-2.18-12.17c-0.09-1.03-0.15-2.05-0.18-3.09
		c-0.03-0.73-0.04-1.46-0.04-2.2c0-4.61,0.48-9.1,1.4-13.43c0.25-1.19,0.53-2.36,0.86-3.52v-0.01c4.83-17.82,17.11-32.56,33.29-40.7
		c1.1-0.55,2.21-1.08,3.34-1.56c3.73-1.62,7.65-2.89,11.7-3.78c1.02-0.23,2.04-0.42,3.07-0.6c1.46-0.25,2.94-0.44,4.44-0.59
		c1.61-0.16,3.25-0.26,4.89-0.29c0.5-0.01,1-0.02,1.5-0.02s1,0.01,1.5,0.02c1.64,0.03,3.28,0.13,4.89,0.29
		C244.394,6.71,245.414,13.48,245.414,20.5z"/>
	<path style="fill:#4B8696;" d="M250.744,19.5c0,12.79-8.77,33.33-14.65,36.13c-0.81-1.24,0.74,1.28,0,0
		c5.94-10.35,9.32-22.34,9.32-35.13c0-7.02-1.02-13.79-2.93-20.19c1.98,0.19,3.93,0.48,5.86,0.85
		C249.914,7.01,250.744,13.15,250.744,19.5z"/>
	<path style="fill:#4B8696;" d="M299.244,51.3c-18.3-26.04-48.64-33.77-48.95-33.85l-1.46-0.36l0.72-2.91l1.45,0.36
		c0.31,0.07,27.15,6.89,46.19,29.23c0.01,0,0,0.01,0,0.01C298.024,46.22,298.714,48.73,299.244,51.3z"/>
	<path style="fill:#4B8696;" d="M300.504,67.85c-0.09,1.87-0.27,3.73-0.53,5.56c-10.16-23.52-52.53-43.51-52.97-43.72l-1.36-0.64
		l1.27-2.71l1.36,0.63c0.11,0.05,11.5,5.4,23.87,13.74C285.794,49.91,295.294,59.02,300.504,67.85z"/>
	<path style="fill:#4B8696;" d="M298.464,80.97c-0.25,0.97-0.53,1.94-0.84,2.89c-32.22-11.89-53.48-40.17-53.71-40.47l-0.89-1.21
		l2.41-1.79l0.89,1.21C246.544,41.9,267.224,69.38,298.464,80.97z"/>
	<path style="fill:#4B8696;" d="M207.464,69.34c-13.31,9.69-26.97,14.02-32.58,15.5c-0.32-0.95-0.61-1.91-0.88-2.88
		c5.32-1.42,18.88-5.69,31.78-15.11c21.88-15.97,31.57-38.42,28.82-66.7l-0.01-0.13c0.5-0.01,1-0.02,1.5-0.02s1,0.01,1.5,0.02
		C241.104,36.62,223.154,57.91,207.464,69.34z"/>
	<path style="fill:#4B8696;" d="M225.264,0.9c-2.7,29.01-17,46.16-28.69,55.52c-10.89,8.71-21.32,12.34-24.75,13.37
		c-0.09-1.03-0.15-2.05-0.18-3.09c3.8-1.23,13.39-4.86,23.16-12.71c11.08-8.88,24.59-25.12,27.39-52.49
		C223.214,1.27,224.234,1.08,225.264,0.9z"/>
	<path style="fill:#4B8696;" d="M210.494,5.28l-0.19,1.02c-6.22,33.5-36.11,44.36-36.41,44.46l-0.89,0.31
		c0.25-1.19,0.53-2.36,0.86-3.52v-0.01c4.97-2.1,27.62-13.1,33.29-40.7C208.254,6.29,209.364,5.76,210.494,5.28z"/>
	<path style="fill:#53A1BC;" d="M338.324,271.86c0,1.67-0.04,3.32-0.12,4.97h-9.07c-5.71-28.25-25.22-48.6-51.56-58.78
		c0,0,0.78,21.32,2.19,49.31c2.39,47.54,6.62,114.31,11.97,128.47h-111.26c5.35-14.16,9.58-80.93,11.97-128.47
		c1.41-27.99,2.19-49.31,2.19-49.31c-26.34,10.18-45.85,30.53-51.56,58.78h-9.07c-0.08-1.65-0.12-3.3-0.12-4.97
		c0-47.65,33.135-87.808,77.255-99.128l-1.225-2.822l-1.27-5.25c0.07-0.03,0.15-0.06,0.23-0.1c8.59-3.61,18.46,0.86,21.75,9.58
		l1.72,4.56c0.58,1.55,2.07,2.58,3.72,2.58h0.07c1.66,0,3.14-1.03,3.73-2.58l1.11-2.94l0.61-1.62c3.29-8.72,13.16-13.19,21.75-9.58
		c0.08,0.04,0.15,0.07,0.23,0.1l-1.28,5.29l-1.199,2.755C305.214,184.015,338.324,224.21,338.324,271.86z"/>
	<polygon style="opacity:0.29;fill:#4D4D4D;enable-background:new    ;" points="237.564,288.612 237.564,185.33 234.564,185.33 
		234.564,289.343 222.859,395.83 249.348,395.83 	"/>
	<path style="fill:#488DA0;" d="M263.564,164.66l-1.28,5.29c-3.01,11.048-14.18,18.2-26.18,18.2c-12.01,0-23.466-7.402-26.19-18.24
		l-1.27-5.25c0.07-0.03,0.15-0.06,0.23-0.1c8.59-3.61,18.46,0.86,21.75,9.58l1.72,4.56c0.58,1.55,2.07,2.58,3.72,2.58h0.07
		c1.66,0,3.14-1.03,3.73-2.58l1.11-2.94l0.61-1.62c3.29-8.72,13.16-13.19,21.75-9.58C263.414,164.6,263.484,164.63,263.564,164.66z"
		/>
	<g>
		<g>
			<path style="fill:#4D4D4D;" d="M215.363,386.13c-1.37-0.15-2.37-1.39-2.21-2.76l0,0c0.15-1.37,1.38-2.36,2.75-2.21l0,0
				c1.38,0.15,2.37,1.38,2.22,2.76l0,0c-0.14,1.28-1.23,2.22-2.48,2.22l0,0C215.544,386.14,215.454,386.14,215.363,386.13z
				 M216.704,373.94c-1.38-0.15-2.37-1.38-2.22-2.76l0,0c0.15-1.37,1.39-2.36,2.76-2.21l0,0c1.37,0.15,2.37,1.39,2.21,2.76l0,0
				c-0.14,1.28-1.22,2.23-2.48,2.23l0,0C216.883,373.96,216.794,373.95,216.704,373.94z M218.044,361.76
				c-1.38-0.15-2.37-1.39-2.22-2.76l0,0c0.15-1.37,1.39-2.36,2.76-2.21l0,0c1.37,0.15,2.36,1.38,2.21,2.76l0,0
				c-0.14,1.28-1.22,2.22-2.48,2.22l0,0C218.224,361.77,218.133,361.77,218.044,361.76z M219.383,349.57
				c-1.38-0.15-2.37-1.38-2.22-2.76l0,0c0.15-1.37,1.39-2.36,2.76-2.21l0,0c1.37,0.15,2.36,1.39,2.21,2.76l0,0
				c-0.14,1.28-1.22,2.23-2.48,2.23l0,0C219.564,349.59,219.474,349.58,219.383,349.57z M220.714,337.39
				c-1.37-0.15-2.36-1.39-2.21-2.76l0,0c0.15-1.37,1.39-2.37,2.76-2.21l0,0c1.37,0.15,2.36,1.38,2.21,2.75l0,0
				c-0.14,1.28-1.22,2.23-2.48,2.23l0,0C220.903,337.4,220.814,337.4,220.714,337.39z M222.053,325.2
				c-1.37-0.15-2.36-1.39-2.21-2.76l0,0c0.15-1.37,1.39-2.36,2.76-2.21l0,0c1.37,0.15,2.36,1.39,2.21,2.76l0,0
				c-0.14,1.28-1.22,2.23-2.48,2.23l0,0C222.244,325.22,222.153,325.21,222.053,325.2z M223.394,313.02
				c-1.37-0.16-2.36-1.39-2.21-2.76l0,0c0.15-1.38,1.39-2.37,2.76-2.22l0,0c1.37,0.16,2.36,1.39,2.21,2.76l0,0
				c-0.14,1.28-1.22,2.23-2.48,2.23l0,0C223.584,313.03,223.484,313.03,223.394,313.02z M224.734,300.83
				c-1.37-0.15-2.36-1.39-2.21-2.76l0,0c0.15-1.37,1.39-2.36,2.76-2.21l0,0c1.37,0.15,2.36,1.38,2.21,2.76l0,0
				c-0.14,1.28-1.22,2.22-2.48,2.22l0,0C224.924,300.84,224.834,300.84,224.734,300.83z M226.073,288.64
				c-1.37-0.15-2.36-1.38-2.21-2.76l0,0c0.15-1.37,1.39-2.36,2.76-2.21l0,0c1.37,0.15,2.36,1.39,2.21,2.76l0,0
				c-0.14,1.28-1.22,2.23-2.48,2.23l0,0C226.263,288.66,226.164,288.65,226.073,288.64z M225.044,273.97c0-1.39,1.12-2.51,2.49-2.51
				l0,0c1.39,0,2.5,1.12,2.5,2.51l0,0c0,1.37-1.11,2.5-2.5,2.5l0,0C226.164,276.47,225.044,275.34,225.044,273.97z M225.044,261.71
				c0-1.39,1.12-2.5,2.49-2.5l0,0c1.39,0,2.5,1.11,2.5,2.5l0,0c0,1.37-1.11,2.5-2.5,2.5l0,0
				C226.164,264.21,225.044,263.08,225.044,261.71z M225.044,249.45c0-1.38,1.12-2.5,2.49-2.5l0,0c1.39,0,2.5,1.12,2.5,2.5l0,0
				c0,1.38-1.11,2.5-2.5,2.5l0,0C226.164,251.95,225.044,250.83,225.044,249.45z M225.044,237.19c0-1.38,1.12-2.5,2.49-2.5l0,0
				c1.39,0,2.5,1.12,2.5,2.5l0,0c0,1.38-1.11,2.5-2.5,2.5l0,0C226.164,239.69,225.044,238.57,225.044,237.19z M225.044,224.93
				c0-1.38,1.12-2.5,2.49-2.5l0,0c1.39,0,2.5,1.12,2.5,2.5l0,0c0,1.38-1.11,2.5-2.5,2.5l0,0
				C226.164,227.43,225.044,226.31,225.044,224.93z M225.044,212.67c0-1.38,1.12-2.5,2.49-2.5l0,0c1.39,0,2.5,1.12,2.5,2.5l0,0
				c0,1.38-1.11,2.5-2.5,2.5l0,0C226.164,215.17,225.044,214.05,225.044,212.67z M225.044,200.41c0-1.38,1.12-2.5,2.49-2.5l0,0
				c1.39,0,2.5,1.12,2.5,2.5l0,0c0,1.38-1.11,2.5-2.5,2.5l0,0C226.164,202.91,225.044,201.79,225.044,200.41z"/>
		</g>
		<g>
			<path style="fill:#4D4D4D;" d="M256.564,386.14L256.564,386.14c-1.25,0-2.34-0.94-2.48-2.22l0,0c-0.15-1.38,0.84-2.61,2.22-2.76
				l0,0c1.37-0.15,2.6,0.84,2.75,2.21l0,0c0.16,1.37-0.84,2.61-2.21,2.76C256.754,386.14,256.664,386.14,256.564,386.14z
				 M255.234,373.96L255.234,373.96c-1.26,0-2.34-0.95-2.48-2.23l0,0c-0.16-1.37,0.84-2.61,2.21-2.76l0,0
				c1.37-0.15,2.61,0.84,2.76,2.21l0,0c0.15,1.38-0.84,2.61-2.22,2.76C255.414,373.95,255.324,373.96,255.234,373.96z
				 M253.894,361.77L253.894,361.77c-1.26,0-2.34-0.94-2.48-2.22l0,0c-0.15-1.38,0.84-2.61,2.21-2.76l0,0
				c1.37-0.15,2.61,0.84,2.76,2.21l0,0c0.15,1.37-0.84,2.61-2.22,2.76C254.074,361.77,253.984,361.77,253.894,361.77z
				 M252.554,349.59L252.554,349.59c-1.26,0-2.34-0.95-2.48-2.23l0,0c-0.15-1.37,0.84-2.61,2.21-2.76l0,0
				c1.37-0.15,2.61,0.84,2.76,2.21l0,0c0.15,1.38-0.84,2.61-2.22,2.76C252.734,349.58,252.644,349.59,252.554,349.59z
				 M251.214,337.4L251.214,337.4c-1.26,0-2.34-0.95-2.48-2.23l0,0c-0.15-1.37,0.84-2.6,2.21-2.75l0,0
				c1.37-0.16,2.61,0.84,2.76,2.21l0,0c0.15,1.37-0.84,2.61-2.21,2.76C251.394,337.4,251.304,337.4,251.214,337.4z M249.874,325.22
				L249.874,325.22c-1.26,0-2.34-0.95-2.48-2.23l0,0c-0.15-1.37,0.84-2.61,2.21-2.76l0,0c1.37-0.15,2.61,0.84,2.76,2.21l0,0
				c0.15,1.37-0.84,2.61-2.21,2.76C250.054,325.21,249.964,325.22,249.874,325.22z M248.534,313.03L248.534,313.03
				c-1.26,0-2.34-0.95-2.48-2.23l0,0c-0.15-1.37,0.84-2.6,2.21-2.76l0,0c1.37-0.15,2.61,0.84,2.76,2.22l0,0
				c0.15,1.37-0.84,2.6-2.21,2.76C248.724,313.03,248.624,313.03,248.534,313.03z M247.194,300.84L247.194,300.84
				c-1.26,0-2.34-0.94-2.48-2.22l0,0c-0.15-1.38,0.84-2.61,2.21-2.76l0,0c1.37-0.15,2.61,0.84,2.76,2.21l0,0
				c0.15,1.37-0.84,2.61-2.21,2.76C247.374,300.84,247.284,300.84,247.194,300.84z M245.854,288.66L245.854,288.66
				c-1.26,0-2.34-0.95-2.48-2.23l0,0c-0.15-1.37,0.84-2.61,2.21-2.76l0,0c1.37-0.15,2.61,0.84,2.76,2.21l0,0
				c0.15,1.38-0.84,2.61-2.21,2.76C246.044,288.65,245.944,288.66,245.854,288.66z M244.674,276.47L244.674,276.47
				c-1.39,0-2.5-1.13-2.5-2.5l0,0c0-1.39,1.11-2.51,2.5-2.51l0,0c1.37,0,2.49,1.12,2.49,2.51
				C247.164,275.34,246.044,276.47,244.674,276.47z M244.674,264.21L244.674,264.21c-1.39,0-2.5-1.13-2.5-2.5l0,0
				c0-1.39,1.11-2.5,2.5-2.5l0,0c1.37,0,2.49,1.11,2.49,2.5C247.164,263.08,246.044,264.21,244.674,264.21z M244.674,251.95
				L244.674,251.95c-1.39,0-2.5-1.12-2.5-2.5l0,0c0-1.38,1.11-2.5,2.5-2.5l0,0c1.37,0,2.49,1.12,2.49,2.5
				S246.044,251.95,244.674,251.95z M244.674,239.69L244.674,239.69c-1.39,0-2.5-1.12-2.5-2.5l0,0c0-1.38,1.11-2.5,2.5-2.5l0,0
				c1.37,0,2.49,1.12,2.49,2.5S246.044,239.69,244.674,239.69z M244.674,227.43L244.674,227.43c-1.39,0-2.5-1.12-2.5-2.5l0,0
				c0-1.38,1.11-2.5,2.5-2.5l0,0c1.37,0,2.49,1.12,2.49,2.5S246.044,227.43,244.674,227.43z M244.674,215.17L244.674,215.17
				c-1.39,0-2.5-1.12-2.5-2.5l0,0c0-1.38,1.11-2.5,2.5-2.5l0,0c1.37,0,2.49,1.12,2.49,2.5S246.044,215.17,244.674,215.17z
				 M244.674,202.91L244.674,202.91c-1.39,0-2.5-1.12-2.5-2.5l0,0c0-1.38,1.11-2.5,2.5-2.5l0,0c1.37,0,2.49,1.12,2.49,2.5
				C247.164,201.79,246.044,202.91,244.674,202.91z"/>
		</g>
	</g>
	<path style="opacity:0.29;fill:#4D4D4D;enable-background:new    ;" d="M194.634,218.05c0,0,1.78-26.209-7.107-36.131"/>
	<path style="opacity:0.29;fill:#4D4D4D;enable-background:new    ;" d="M277.574,218.05c0,0-1.78-26.209,7.107-36.131"/>
</g>
<g>
</g>
<g>
</g>
<g>
</g>
<g>
</g>
<g>
</g>
<g>
</g>
<g>
</g>
<g>
</g>
<g>
</g>
<g>
</g>
<g>
</g>
<g>
</g>
<g>
</g>
<g>
</g>
<g>
</g>
</svg>
